PathFileType	4	(X/Y/Z)	T1_P2_Vision_NoMovement_0_0-733.trc
DataRate	CameraRate	NumFrames	NumMarkers	Units	OrigDataRate	OrigDataStartFrame	OrigNumFrames
60	60	6	27	m	60	91	733
Frame#	Time	RHip			RKnee			RAnkle			RBigToe			RSmallToe			RHeel			LHip			LKnee			LAnkle			LBigToe			LSmallToe			LHeel			Neck			Head			Nose			RShoulder			RElbow			RWrist			RThumb			RIndex			RPinky			LShoulder			LElbow			LWrist			LThumb			LIndex			LPinky		
		X1	Y1	Z1	X2	Y2	Z2	X3	Y3	Z3	X4	Y4	Z4	X5	Y5	Z5	X6	Y6	Z6	X7	Y7	Z7	X8	Y8	Z8	X9	Y9	Z9	X10	Y10	Z10	X11	Y11	Z11	X12	Y12	Z12	X13	Y13	Z13	X14	Y14	Z14	X15	Y15	Z15	X16	Y16	Z16	X17	Y17	Z17	X18	Y18	Z18	X19	Y19	Z19	X20	Y20	Z20	X21	Y21	Z21	X22	Y22	Z22	X23	Y23	Z23	X24	Y24	Z24	X25	Y25	Z25	X26	Y26	Z26	X27	Y27	Z27
92	1.5333333333333334	436.7062454523569	3693.1995606492796	638.8444260339537	856.6259931314936	3777.4628423364475	658.0442221194703	1218.4827155218677	3740.106922950724	673.2439990595161	1293.5486760257138	3649.238369554103	654.2892359085942	1293.7676724335827	3698.5709777938287	607.1589703327463	1288.3506797125713	3817.3903137095654	746.7771576048694	454.9042216069387	3631.4946168326587	851.9523775447883	853.2868346645548	3637.9573147304654	852.7672245141677	1233.450658648454	3679.1458018382805	855.9852650902087	1301.4937953930685	3545.8469885889713	797.6290354525215	1283.337763824265	3536.586937450498	847.0086131540991	1258.9636767849213	3706.6674921624526	857.4570447180422	-121.26890547589777	3611.014434120088	740.1093854542776	-388.01076613998606	3562.1116607153226	716.1164920426259	-232.8703633383796	3433.61033794371	662.9198827802328	-48.93508716024787	3660.3035501226022	576.6236683692324	181.29544454812003	3783.150426810769	520.7874397199419	274.80338509890896	3535.043128459407	537.2049864544476	280.4575962953422	3406.538235969316	620.9818003565938	329.7128149198376	3424.832349944556	636.8287424061542	375.6708218653012	3447.777831574868	625.5381084646989	-35.52405836318111	3545.3023239140957	888.4876481771261	198.7832430310149	3524.1114719546745	973.9883454891657	292.2155799383149	3386.9127648548065	749.4775629782332	279.6829616689256	3408.407808485583	650.1952783908364	326.5931062710232	3389.3697503510894	623.1449323672838	381.77221792614995	3438.592319412679	670.6283907650479
93	1.55	441.13951083658793	3692.905764856148	640.020781993231	859.3637034773553	3785.3756996181837	661.6071657381024	1217.5785347312035	3739.3477645945177	672.6476381271596	1296.0414850934756	3654.466964812649	658.7454772670245	1291.7866375811195	3692.9514115819616	605.7681906225849	1287.147378298453	3813.9540848006764	745.8010572853568	455.565385662513	3630.311318013187	852.9066383855544	856.600945862425	3638.656456464124	853.1740025267744	1233.436200508819	3679.026869013637	855.8695371456618	1302.0882610152942	3547.479530253862	798.2225479599219	1283.8710565194122	3536.7646462910284	847.3884962918575	1258.9955004590888	3706.616023798609	857.413000224986	-121.3705853603991	3609.4131483041865	739.563148578159	-387.3060039912821	3561.0518193764037	716.1534768714322	-232.87816193963423	3432.808169142151	663.8191235697981	-48.90158188464971	3660.0917075682005	576.5601580233445	181.73197563759658	3783.199463939457	522.2793237669932	280.76961318165684	3538.355064878175	535.6863772853104	296.6884161408703	3408.4590323626194	612.2735864611861	337.6278385634023	3424.3022726250065	629.2144672678115	386.43877371451924	3463.245019704595	625.7721859811261	-35.51666337390065	3545.2114368538223	888.4852176250981	199.19390821312345	3523.9974199563526	974.3596453219125	302.1263925362017	3395.005731357424	754.610699073116	295.95980831382997	3415.917454291392	657.0645838574737	335.5834658313991	3396.7903066105055	629.8504257012326	392.31475438205877	3450.465307378135	679.8771805593499
94	1.5666666666666669	444.49959264945784	3694.0818460600403	640.5442797404985	862.7003245400743	3792.559106996534	664.2139490688954	1216.6412480771946	3737.4678070297214	671.1686416031633	1298.0611341687893	3657.187538347111	661.0200975986342	1289.8926491773059	3687.5578787315926	604.372084361491	1286.9876523983348	3812.5070554507465	745.3757195682012	456.63331706506597	3628.0337857598724	853.776490093235	858.8830029789254	3639.326915239203	853.5844435723129	1233.3806882649046	3678.7914205915285	855.6401489773491	1301.4456081522967	3546.0718586160897	797.7292679090185	1284.6817582057029	3536.9383221476905	848.0454429117092	1259.8020664203743	3707.132909501622	857.5647425169741	-121.4079793454809	3608.3422977197406	739.1972758742612	-386.61906135226684	3557.554119126402	716.354067705802	-232.86004272157146	3432.0491189690506	665.3076646375362	-48.78922031375242	3661.6899428707547	577.9147712594975	181.72831756240672	3783.035421346013	522.9873777251662	286.09198105056754	3540.2507499218855	534.7330689161146	310.12323615790666	3408.881611105714	605.684220914042	346.1692454463557	3424.1032438990414	623.8622076082819	396.7917280932749	3483.0454509989295	627.6178680618018	-35.51763623269216	3545.113262434393	888.4621993900552	198.89946000209818	3522.699719505671	974.8899994272839	307.5520259858963	3396.9977634609113	757.7475411035086	310.04391333664995	3420.636652960975	665.0111757483919	342.6992780671612	3399.997294175866	635.7252765567725	400.4671987826902	3460.2089736217113	690.3693429514605
95	1.5833333333333333	446.3040222049075	3698.8769616385257	641.4119664142821	865.5849681765401	3796.440450507443	665.314713896064	1215.4897643217312	3734.703883675642	668.9882804263851	1297.9050216733701	3655.2901941371665	659.2549383071083	1288.9360129507563	3684.999250824917	603.6949496174341	1288.6527323843154	3815.091529666536	746.0661447022238	458.04146876426813	3625.635587118372	854.0453817270611	858.6998322173511	3640.44713992365	854.2209070621662	1233.3265211562816	3678.507720402501	855.3559580346032	1300.1067000835758	3542.4388399491727	796.4630277865793	1285.103968935572	3537.0581043776015	848.3475611676163	1260.2464291723957	3707.4451635052164	857.6663033409828	-121.31220979861905	3610.796806554159	741.4662092000696	-386.02621252839094	3551.379450036355	716.3052375237412	-232.82007788451875	3432.8831787732456	667.760904076519	-48.59242502961566	3666.1254850146092	581.4864097858122	181.6284093575393	3782.8345368233013	523.0628380545448	290.466278828758	3540.0812228518694	534.0339672221094	320.2227591746459	3408.9867168701685	601.7743046771943	356.56052485482064	3423.722834031559	619.2041597645589	406.18212787580916	3506.2560977295957	630.2586611956963	-35.52579625618107	3545.0958367700587	888.4542313486049	198.5515903325146	3521.272257401951	975.3842719135466	308.6476569130604	3393.2755676034794	760.1647240083934	319.0897142545048	3422.005639992605	672.6011924835733	348.54393342095545	3400.65292415585	641.979725086849	405.3102511656675	3465.1999406131217	699.9780698379187
96	1.6	447.440538469639	3706.5992150956527	643.0239937885649	866.5156349757473	3795.6762603292073	664.8240082681866	1215.2957589165696	3733.432334748582	667.9420243265272	1296.06538490275	3650.926690558701	655.3354564837268	1288.706717667526	3684.6382123535514	603.632808776784	1291.128012677176	3819.498882797783	747.2555670896796	459.2404616466247	3624.132692636108	853.8251378362654	856.48413061904	3641.8757181390283	854.9369951802881	1233.4651641478276	3678.6614893044084	855.449189427292	1299.4994552942678	3539.110381158004	795.5198893445337	1284.7041653629676	3536.929996287328	848.3490167351995	1259.8201181430206	3707.1964313788044	857.5982564393206	-121.13433051902686	3615.694949092972	746.0044612503862	-385.61674040841086	3545.8976000014595	715.95112035531	-232.79291210088243	3436.415650006815	671.7015701947538	-48.36574939778736	3672.027899412147	586.2191897352792	181.56304759328685	3782.724670572854	522.9628916779297	294.15622827208335	3537.1876094711492	532.606336082725	329.2888446186516	3412.669439171103	600.535128936806	369.2878411153372	3425.9048900815424	615.7355477625993	414.60888480470476	3529.8464913605117	633.2591107106406	-35.53036000117261	3545.189690640672	888.4777774504621	198.73773551738748	3520.6426986986503	975.6702256738547	308.082777929513	3388.719798627557	763.6167795670186	324.80913714538417	3423.049300421282	679.2216907999389	354.55307135393537	3402.663784439089	650.3850570696362	407.9300256439719	3464.1634757387474	705.8439751852231
97	1.6166666666666667	448.60212061041034	3713.579778129093	644.7180020263628	864.4494503237224	3789.685547461183	662.852118142299	1217.337580627702	3735.587549426814	669.4160524706183	1294.1906349318801	3647.630193210565	652.6781407771425	1288.7478214938724	3684.962888689801	603.8047763053072	1293.1278609109054	3822.678417860363	748.1098449357335	459.80228251638556	3623.8257802101452	853.6524610336114	853.6396182932349	3642.811689086121	855.294815119034	1234.1486343315792	3680.312136964192	856.8816078874979	1300.5617734956622	3537.7689909325054	795.8454306707581	1283.9804039031187	3536.514903735869	848.6606939209327	1259.7559067314728	3707.214189598132	857.6213496596433	-120.98375647464823	3619.6916909959186	750.0762384867515	-385.6305865290596	3545.8383405315158	715.8215307691238	-232.8041401106816	3441.524426850254	676.4229995356463	-48.19710573903155	3676.4305471869648	589.7926202353365	181.5263337293914	3782.766576314645	522.9336637381942	298.3992283491593	3529.8097898690417	528.9460923623744	339.66252822135726	3419.2669023104836	601.0031425503587	382.72161501974114	3430.9372362035792	613.7075623352944	422.49597045206144	3546.1540032525913	634.7184152288983	-35.512962301833454	3545.3547406808375	888.523902319256	198.95029675187374	3520.3650980380853	975.6103540054353	307.7976957445503	3385.6217106094955	766.0776929604551	329.95362431538007	3423.9630884125872	682.5124747172171	359.8147235119558	3402.81445391779	655.8748042974978	409.9697885924425	3457.172667681136	705.671209288873
